<?xml version="1.0" encoding="UTF-8" standalone="no"?><svg xmlns="http://www.w3.org/2000/svg" xmlns:xlink="http://www.w3.org/1999/xlink" contentScriptType="text/ecmascript" fill="#f9f9f9" width="4232.5" zoomAndPan="magnify" contentStyleType="text/css" viewBox="0.0 0.0 4232.5 4232.5" height="4232.5" preserveAspectRatio="xMidYMid meet" version="1"><g id="change1_1"><path fill="inherit" d="M 4180.152344 3107.082031 C 4211.050781 3189.648438 4229.074219 3278.332031 4231.800781 3371.101562 C 4232.472656 3379.933594 4232.472656 3388.769531 4232.472656 3397.941406 C 4232.472656 3858.710938 3858.691406 4232.480469 3397.925781 4232.480469 C 1521.257812 4232.480469 0 2711.222656 0 834.53125 C 0 373.789062 373.773438 0.00390625 834.535156 0.00390625 C 843.710938 0.00390625 852.546875 0.00390625 861.382812 0.679688 C 954.140625 3.40625 1043.167969 21.425781 1125.730469 52.328125 L 1439.027344 1408.796875 C 1439.027344 1409.472656 1438.6875 1409.808594 1438.007812 1410.148438 L 863.410156 1668.390625 L 861.714844 1669.074219 C 1125.398438 2472 1760.476562 3107.082031 2563.40625 3370.773438 L 2564.085938 3369.058594 L 2822.671875 2794.132812 L 4180.152344 3107.082031"/></g></svg>